<svg xmlns="http://www.w3.org/2000/svg" viewBox="0 0 600 440"><g fill="none" stroke="#387b42" stroke-width="5" stroke-linecap="round" stroke-linejoin="round"><circle cx="300" cy="80" r="42" fill="#efe6d7"/><path d="M268 71c17-43 75-38 81 4-28-16-53-10-81-4z" fill="#1e1e1e" stroke="#1e1e1e"/><path d="M285 124c-22 66-17 132 9 198M327 123c25 61 29 127 12 200M291 159L154 90M321 158l138-91M294 321l-90 95M339 321l93 95"/><path d="M154 90l-64 3M459 67l58-8"/></g><g fill="#c9dd45"><circle cx="154" cy="91" r="25"/><circle cx="459" cy="67" r="25"/></g></svg>