<svg xmlns="http://www.w3.org/2000/svg" viewBox="0 0 520 270"><g fill="none" stroke="#387b42" stroke-width="5" stroke-linecap="round" stroke-linejoin="round"><circle cx="210" cy="62" r="32"/><circle cx="330" cy="100" r="24"/><path d="M206 96c-17 44-18 88-3 132M230 101c47 29 69 42 101 47M199 126l-68 67M204 228l-50 34M227 224l49 39M327 126c-10 35-8 70 4 106M331 157l63 30M330 230l-37 33M348 227l37 34"/></g><circle cx="130" cy="191" r="34" fill="#c9dd45" opacity=".8"/><circle cx="392" cy="187" r="28" fill="#efe6d7"/></svg>