<svg xmlns="http://www.w3.org/2000/svg" viewBox="0 0 640 500"><g fill="none" stroke="#387b42" stroke-width="5" stroke-linecap="round" stroke-linejoin="round"><circle cx="358" cy="88" r="46" fill="#fff"/><path d="M317 78c12-44 76-52 90-2-25-20-55-10-90 2z" fill="#1e1e1e" stroke="#1e1e1e"/><path d="M323 136c-34 50-44 107-26 171 10 39 5 83-27 151M384 135c48 42 62 108 39 174-13 38-12 93 8 149"/><path d="M329 156c-32 47-76 70-128 67M382 154c35 33 78 43 130 31"/><path d="M203 223c-46-8-76 9-91 51M511 185c35 7 59 32 70 73"/><path d="M297 307c39 22 81 23 126 2"/></g><g fill="#c9dd45" opacity=".9"><circle cx="200" cy="220" r="38"/><circle cx="419" cy="306" r="30"/><circle cx="535" cy="183" r="24"/></g><g fill="none" stroke="#387b42" stroke-width="4"><path d="M68 417c74-50 139-71 205-63M443 390c71 2 116 22 143 60"/></g></svg>